<mxfile host="app.diagrams.net" modified="2021-09-14T10:26:28.450Z" agent="5.0 (Macintosh; Intel Mac OS X 10_15_7) AppleWebKit/605.1.15 (KHTML, like Gecko) Version/13.1.3 Safari/605.1.15" etag="yAdW9xXPxUCc_1Y-JdGk" version="15.2.5" type="github">
  <diagram id="Sng9oXhPw8sq8iBNVPmk" name="Page-1">
    <mxGraphModel dx="612" dy="437" grid="1" gridSize="10" guides="1" tooltips="1" connect="1" arrows="1" fold="1" page="1" pageScale="1" pageWidth="827" pageHeight="1169" math="0" shadow="0">
      <root>
        <mxCell id="0" />
        <mxCell id="1" parent="0" />
        <mxCell id="ctpwhJaxbJnR2Wg8G6gr-1" value="1,2,1" style="ellipse;whiteSpace=wrap;html=1;aspect=fixed;" vertex="1" parent="1">
          <mxGeometry x="374" y="30" width="40" height="40" as="geometry" />
        </mxCell>
        <mxCell id="ctpwhJaxbJnR2Wg8G6gr-2" value="2.2" style="ellipse;whiteSpace=wrap;html=1;aspect=fixed;" vertex="1" parent="1">
          <mxGeometry x="374" y="110" width="40" height="40" as="geometry" />
        </mxCell>
        <mxCell id="ctpwhJaxbJnR2Wg8G6gr-3" value="2.3" style="ellipse;whiteSpace=wrap;html=1;aspect=fixed;" vertex="1" parent="1">
          <mxGeometry x="610" y="110" width="40" height="40" as="geometry" />
        </mxCell>
        <mxCell id="ctpwhJaxbJnR2Wg8G6gr-4" value="3,4,5" style="ellipse;whiteSpace=wrap;html=1;aspect=fixed;" vertex="1" parent="1">
          <mxGeometry x="270" y="150" width="40" height="40" as="geometry" />
        </mxCell>
        <mxCell id="ctpwhJaxbJnR2Wg8G6gr-6" value="6" style="ellipse;whiteSpace=wrap;html=1;aspect=fixed;" vertex="1" parent="1">
          <mxGeometry x="270" y="240" width="40" height="40" as="geometry" />
        </mxCell>
        <mxCell id="ctpwhJaxbJnR2Wg8G6gr-7" value="7" style="ellipse;whiteSpace=wrap;html=1;aspect=fixed;" vertex="1" parent="1">
          <mxGeometry x="150" y="240" width="40" height="40" as="geometry" />
        </mxCell>
        <mxCell id="ctpwhJaxbJnR2Wg8G6gr-8" value="8" style="ellipse;whiteSpace=wrap;html=1;aspect=fixed;" vertex="1" parent="1">
          <mxGeometry x="80" y="320" width="40" height="40" as="geometry" />
        </mxCell>
        <mxCell id="ctpwhJaxbJnR2Wg8G6gr-9" value="9" style="ellipse;whiteSpace=wrap;html=1;aspect=fixed;" vertex="1" parent="1">
          <mxGeometry x="150" y="320" width="40" height="40" as="geometry" />
        </mxCell>
        <mxCell id="ctpwhJaxbJnR2Wg8G6gr-10" value="10" style="ellipse;whiteSpace=wrap;html=1;aspect=fixed;" vertex="1" parent="1">
          <mxGeometry x="210" y="320" width="40" height="40" as="geometry" />
        </mxCell>
        <mxCell id="ctpwhJaxbJnR2Wg8G6gr-11" value="11" style="ellipse;whiteSpace=wrap;html=1;aspect=fixed;" vertex="1" parent="1">
          <mxGeometry x="270" y="320" width="40" height="40" as="geometry" />
        </mxCell>
        <mxCell id="ctpwhJaxbJnR2Wg8G6gr-12" value="12" style="ellipse;whiteSpace=wrap;html=1;aspect=fixed;" vertex="1" parent="1">
          <mxGeometry x="340" y="320" width="40" height="40" as="geometry" />
        </mxCell>
        <mxCell id="ctpwhJaxbJnR2Wg8G6gr-13" value="14" style="ellipse;whiteSpace=wrap;html=1;aspect=fixed;" vertex="1" parent="1">
          <mxGeometry x="414" y="320" width="40" height="40" as="geometry" />
        </mxCell>
        <mxCell id="ctpwhJaxbJnR2Wg8G6gr-14" value="15" style="ellipse;whiteSpace=wrap;html=1;aspect=fixed;" vertex="1" parent="1">
          <mxGeometry x="480" y="320" width="40" height="40" as="geometry" />
        </mxCell>
        <mxCell id="ctpwhJaxbJnR2Wg8G6gr-15" value="16" style="ellipse;whiteSpace=wrap;html=1;aspect=fixed;" vertex="1" parent="1">
          <mxGeometry x="480" y="250" width="40" height="40" as="geometry" />
        </mxCell>
        <mxCell id="ctpwhJaxbJnR2Wg8G6gr-16" value="19" style="ellipse;whiteSpace=wrap;html=1;aspect=fixed;" vertex="1" parent="1">
          <mxGeometry x="270" y="400" width="40" height="40" as="geometry" />
        </mxCell>
        <mxCell id="ctpwhJaxbJnR2Wg8G6gr-17" value="21,22" style="ellipse;whiteSpace=wrap;html=1;aspect=fixed;" vertex="1" parent="1">
          <mxGeometry x="270" y="480" width="40" height="40" as="geometry" />
        </mxCell>
        <mxCell id="ctpwhJaxbJnR2Wg8G6gr-18" value="13" style="ellipse;whiteSpace=wrap;html=1;aspect=fixed;" vertex="1" parent="1">
          <mxGeometry x="340" y="400" width="40" height="40" as="geometry" />
        </mxCell>
        <mxCell id="ctpwhJaxbJnR2Wg8G6gr-19" value="20" style="ellipse;whiteSpace=wrap;html=1;aspect=fixed;" vertex="1" parent="1">
          <mxGeometry x="330" y="520" width="40" height="40" as="geometry" />
        </mxCell>
        <mxCell id="ctpwhJaxbJnR2Wg8G6gr-20" value="17,18" style="ellipse;whiteSpace=wrap;html=1;aspect=fixed;" vertex="1" parent="1">
          <mxGeometry x="480" y="470" width="40" height="40" as="geometry" />
        </mxCell>
        <mxCell id="ctpwhJaxbJnR2Wg8G6gr-21" value="25" style="ellipse;whiteSpace=wrap;html=1;aspect=fixed;" vertex="1" parent="1">
          <mxGeometry x="210" y="580" width="40" height="40" as="geometry" />
        </mxCell>
        <mxCell id="ctpwhJaxbJnR2Wg8G6gr-22" value="23,24" style="ellipse;whiteSpace=wrap;html=1;aspect=fixed;" vertex="1" parent="1">
          <mxGeometry x="130" y="580" width="40" height="40" as="geometry" />
        </mxCell>
        <mxCell id="ctpwhJaxbJnR2Wg8G6gr-23" value="" style="endArrow=classic;html=1;entryX=0.5;entryY=0;entryDx=0;entryDy=0;exitX=0.5;exitY=1;exitDx=0;exitDy=0;" edge="1" parent="1" source="ctpwhJaxbJnR2Wg8G6gr-1" target="ctpwhJaxbJnR2Wg8G6gr-2">
          <mxGeometry width="50" height="50" relative="1" as="geometry">
            <mxPoint x="400" y="70" as="sourcePoint" />
            <mxPoint x="450" y="20" as="targetPoint" />
          </mxGeometry>
        </mxCell>
        <mxCell id="ctpwhJaxbJnR2Wg8G6gr-24" value="" style="endArrow=classic;html=1;exitX=0;exitY=0.5;exitDx=0;exitDy=0;" edge="1" parent="1" source="ctpwhJaxbJnR2Wg8G6gr-3" target="ctpwhJaxbJnR2Wg8G6gr-2">
          <mxGeometry width="50" height="50" relative="1" as="geometry">
            <mxPoint x="610" y="120" as="sourcePoint" />
            <mxPoint x="420" y="130" as="targetPoint" />
            <Array as="points" />
          </mxGeometry>
        </mxCell>
        <mxCell id="ctpwhJaxbJnR2Wg8G6gr-25" value="" style="endArrow=classic;html=1;entryX=0.5;entryY=0;entryDx=0;entryDy=0;exitX=0;exitY=0.5;exitDx=0;exitDy=0;" edge="1" parent="1" source="ctpwhJaxbJnR2Wg8G6gr-2" target="ctpwhJaxbJnR2Wg8G6gr-4">
          <mxGeometry width="50" height="50" relative="1" as="geometry">
            <mxPoint x="370" y="130" as="sourcePoint" />
            <mxPoint x="424" y="140" as="targetPoint" />
            <Array as="points">
              <mxPoint x="290" y="130" />
            </Array>
          </mxGeometry>
        </mxCell>
        <mxCell id="ctpwhJaxbJnR2Wg8G6gr-26" value="" style="endArrow=classic;html=1;exitX=0.5;exitY=1;exitDx=0;exitDy=0;entryX=0.5;entryY=0;entryDx=0;entryDy=0;" edge="1" parent="1" source="ctpwhJaxbJnR2Wg8G6gr-4" target="ctpwhJaxbJnR2Wg8G6gr-6">
          <mxGeometry width="50" height="50" relative="1" as="geometry">
            <mxPoint x="390" y="330" as="sourcePoint" />
            <mxPoint x="440" y="280" as="targetPoint" />
          </mxGeometry>
        </mxCell>
        <mxCell id="ctpwhJaxbJnR2Wg8G6gr-27" value="" style="endArrow=classic;html=1;exitX=0.5;exitY=1;exitDx=0;exitDy=0;entryX=0.5;entryY=0;entryDx=0;entryDy=0;" edge="1" parent="1" source="ctpwhJaxbJnR2Wg8G6gr-6" target="ctpwhJaxbJnR2Wg8G6gr-11">
          <mxGeometry width="50" height="50" relative="1" as="geometry">
            <mxPoint x="390" y="330" as="sourcePoint" />
            <mxPoint x="440" y="280" as="targetPoint" />
          </mxGeometry>
        </mxCell>
        <mxCell id="ctpwhJaxbJnR2Wg8G6gr-28" value="" style="endArrow=classic;html=1;exitX=0.5;exitY=1;exitDx=0;exitDy=0;entryX=0.5;entryY=0;entryDx=0;entryDy=0;" edge="1" parent="1" source="ctpwhJaxbJnR2Wg8G6gr-11" target="ctpwhJaxbJnR2Wg8G6gr-16">
          <mxGeometry width="50" height="50" relative="1" as="geometry">
            <mxPoint x="390" y="330" as="sourcePoint" />
            <mxPoint x="440" y="280" as="targetPoint" />
          </mxGeometry>
        </mxCell>
        <mxCell id="ctpwhJaxbJnR2Wg8G6gr-29" value="" style="endArrow=classic;html=1;exitX=0;exitY=0.5;exitDx=0;exitDy=0;entryX=1;entryY=0.5;entryDx=0;entryDy=0;" edge="1" parent="1" source="ctpwhJaxbJnR2Wg8G6gr-6" target="ctpwhJaxbJnR2Wg8G6gr-7">
          <mxGeometry width="50" height="50" relative="1" as="geometry">
            <mxPoint x="390" y="330" as="sourcePoint" />
            <mxPoint x="440" y="280" as="targetPoint" />
          </mxGeometry>
        </mxCell>
        <mxCell id="ctpwhJaxbJnR2Wg8G6gr-30" value="" style="endArrow=classic;html=1;exitX=1;exitY=0.5;exitDx=0;exitDy=0;entryX=0;entryY=0.5;entryDx=0;entryDy=0;" edge="1" parent="1" source="ctpwhJaxbJnR2Wg8G6gr-11" target="ctpwhJaxbJnR2Wg8G6gr-12">
          <mxGeometry width="50" height="50" relative="1" as="geometry">
            <mxPoint x="390" y="330" as="sourcePoint" />
            <mxPoint x="440" y="280" as="targetPoint" />
          </mxGeometry>
        </mxCell>
        <mxCell id="ctpwhJaxbJnR2Wg8G6gr-31" value="" style="endArrow=classic;html=1;exitX=1;exitY=0.5;exitDx=0;exitDy=0;entryX=0;entryY=0.5;entryDx=0;entryDy=0;" edge="1" parent="1" source="ctpwhJaxbJnR2Wg8G6gr-12" target="ctpwhJaxbJnR2Wg8G6gr-13">
          <mxGeometry width="50" height="50" relative="1" as="geometry">
            <mxPoint x="390" y="330" as="sourcePoint" />
            <mxPoint x="410" y="340" as="targetPoint" />
          </mxGeometry>
        </mxCell>
        <mxCell id="ctpwhJaxbJnR2Wg8G6gr-32" value="" style="endArrow=classic;html=1;exitX=1;exitY=0.5;exitDx=0;exitDy=0;" edge="1" parent="1" source="ctpwhJaxbJnR2Wg8G6gr-13">
          <mxGeometry width="50" height="50" relative="1" as="geometry">
            <mxPoint x="390" y="330" as="sourcePoint" />
            <mxPoint x="480" y="340" as="targetPoint" />
          </mxGeometry>
        </mxCell>
        <mxCell id="ctpwhJaxbJnR2Wg8G6gr-33" value="" style="endArrow=classic;html=1;exitX=0.5;exitY=1;exitDx=0;exitDy=0;entryX=0.5;entryY=0;entryDx=0;entryDy=0;" edge="1" parent="1" source="ctpwhJaxbJnR2Wg8G6gr-12" target="ctpwhJaxbJnR2Wg8G6gr-18">
          <mxGeometry width="50" height="50" relative="1" as="geometry">
            <mxPoint x="390" y="330" as="sourcePoint" />
            <mxPoint x="440" y="280" as="targetPoint" />
          </mxGeometry>
        </mxCell>
        <mxCell id="ctpwhJaxbJnR2Wg8G6gr-34" value="" style="endArrow=classic;html=1;entryX=0.5;entryY=0;entryDx=0;entryDy=0;" edge="1" parent="1" target="ctpwhJaxbJnR2Wg8G6gr-17">
          <mxGeometry width="50" height="50" relative="1" as="geometry">
            <mxPoint x="290" y="440" as="sourcePoint" />
            <mxPoint x="440" y="280" as="targetPoint" />
          </mxGeometry>
        </mxCell>
        <mxCell id="ctpwhJaxbJnR2Wg8G6gr-35" value="" style="endArrow=classic;html=1;" edge="1" parent="1">
          <mxGeometry width="50" height="50" relative="1" as="geometry">
            <mxPoint x="390" y="330" as="sourcePoint" />
            <mxPoint x="440" y="280" as="targetPoint" />
          </mxGeometry>
        </mxCell>
        <mxCell id="ctpwhJaxbJnR2Wg8G6gr-36" value="" style="endArrow=classic;html=1;" edge="1" parent="1">
          <mxGeometry width="50" height="50" relative="1" as="geometry">
            <mxPoint x="390" y="330" as="sourcePoint" />
            <mxPoint x="440" y="280" as="targetPoint" />
          </mxGeometry>
        </mxCell>
        <mxCell id="ctpwhJaxbJnR2Wg8G6gr-37" value="" style="endArrow=classic;html=1;" edge="1" parent="1">
          <mxGeometry width="50" height="50" relative="1" as="geometry">
            <mxPoint x="390" y="330" as="sourcePoint" />
            <mxPoint x="440" y="280" as="targetPoint" />
          </mxGeometry>
        </mxCell>
      </root>
    </mxGraphModel>
  </diagram>
</mxfile>
